<?xml version="1.0" encoding="UTF-8" standalone="no"?>
<!DOCTYPE svg PUBLIC "-//W3C//DTD SVG 1.1//EN" "http://www.w3.org/Graphics/SVG/1.1/DTD/svg11.dtd">
<!-- Generated by Microsoft Visio, SVG Export GUIudkast.svg Page-1 -->
<svg xmlns="http://www.w3.org/2000/svg" xmlns:xlink="http://www.w3.org/1999/xlink" xmlns:ev="http://www.w3.org/2001/xml-events"
		xmlns:v="http://schemas.microsoft.com/visio/2003/SVGExtensions/" width="8.26772in" height="11.6929in"
		viewBox="0 0 595.276 841.89" xml:space="preserve" color-interpolation-filters="sRGB" class="st25">
	<v:documentProperties v:langID="1033" v:metric="true" v:viewMarkup="false">
		<v:userDefs>
			<v:ud v:nameU="msvNoAutoConnect" v:val="VT0(1):26"/>
		</v:userDefs>
	</v:documentProperties>

	<style type="text/css">
	<![CDATA[
		.st1 {visibility:visible}
		.st2 {fill:#000000;stroke:#000000;stroke-linecap:round;stroke-linejoin:round}
		.st3 {fill:#ffffff;stroke:#000000;stroke-linecap:round;stroke-linejoin:round;stroke-width:0.75}
		.st4 {fill:none}
		.st5 {stroke:none;stroke-linecap:round;stroke-linejoin:round;stroke-width:0.75;visibility:hidden}
		.st6 {fill:#000000;font-family:Calibri;font-size:0.75em}
		.st7 {fill:#ffffff;stroke:#000000;stroke-linecap:round;stroke-linejoin:round;stroke-width:0.5}
		.st8 {fill:#eaeaea}
		.st9 {stroke:#a3a3a3;stroke-linecap:round;stroke-linejoin:round;stroke-width:0.5}
		.st10 {fill:#000000;font-family:Calibri;font-size:0.666664em}
		.st11 {fill:#ffffff}
		.st12 {fill:url(#grad0-49);stroke:#000000;stroke-linecap:butt;stroke-width:1.25}
		.st13 {stroke:#000000;stroke-linecap:round;stroke-linejoin:round;stroke-width:1.5}
		.st14 {fill:#000000}
		.st15 {stroke:#000000;stroke-linecap:round;stroke-linejoin:round;stroke-width:0.5}
		.st16 {stroke:#000000;stroke-linecap:round;stroke-linejoin:round;stroke-width:1.25}
		.st17 {fill:none;stroke:none;stroke-linecap:round;stroke-linejoin:round;stroke-width:0.75}
		.st18 {fill:#000000;font-family:Calibri;font-size:1.00001em}
		.st19 {fill:url(#grad0-97)}
		.st20 {stroke:#ffffff;stroke-linecap:round;stroke-linejoin:round;stroke-width:1.5}
		.st21 {fill:url(#grad0-102)}
		.st22 {fill:#ffffff;visibility:hidden}
		.st23 {stroke:#4c4c4c;stroke-linecap:round;stroke-linejoin:round;stroke-width:0.75}
		.st24 {font-size:1em}
		.st25 {fill:none;fill-rule:evenodd;font-size:12px;overflow:visible;stroke-linecap:square;stroke-miterlimit:3}
	]]>
	</style>

	<defs id="Patterns_And_Gradients">
		<linearGradient id="grad0-49" x1="0" y1="0" x2="1" y2="0" gradientTransform="rotate(270 0.5 0.5)">
			<stop offset="0" stop-color="#b7b7b7" stop-opacity="1"/>
			<stop offset="1" stop-color="#ffffff" stop-opacity="1"/>
		</linearGradient>
		<linearGradient id="grad0-97" x1="0" y1="0" x2="1" y2="0" gradientTransform="rotate(90 0.5 0.5)">
			<stop offset="0" stop-color="#e9e9e9" stop-opacity="1"/>
			<stop offset="1" stop-color="#efefef" stop-opacity="1"/>
		</linearGradient>
		<linearGradient id="grad0-102" x1="0" y1="0" x2="1" y2="0" gradientTransform="rotate(90 0.5 0.5)">
			<stop offset="0" stop-color="#ffffff" stop-opacity="1"/>
			<stop offset="1" stop-color="#fefefe" stop-opacity="1"/>
		</linearGradient>
	</defs>
	<g v:mID="0" v:index="1" v:groupContext="foregroundPage">
		<v:userDefs>
			<v:ud v:nameU="msvThemeOrder" v:val="VT0(0):26"/>
		</v:userDefs>
		<title>Page-1</title>
		<v:pageProperties v:drawingScale="0.0393701" v:pageScale="0.0393701" v:drawingUnits="24" v:shadowOffsetX="8.50394"
				v:shadowOffsetY="-8.50394"/>
		<g id="group1-1" transform="translate(28.3465,-490.819)" v:mID="1" v:groupContext="group">
			<v:userDefs>
				<v:ud v:nameU="msvStructureType" v:prompt="" v:val="VT4(Container)"/>
				<v:ud v:nameU="topBarHeight" v:prompt="" v:val="VT0(0):24"/>
				<v:ud v:nameU="msvSDContainerMargin" v:prompt="" v:val="VT0(0.083333333333333):29"/>
				<v:ud v:nameU="barWidth" v:prompt="" v:val="VT0(0):26"/>
				<v:ud v:nameU="barHeight" v:prompt="" v:val="VT0(0):0"/>
				<v:ud v:nameU="msvSDContainerStyle" v:prompt="" v:val="VT0(1):26"/>
				<v:ud v:nameU="msvSDContainerStyleCount" v:prompt="" v:val="VT0(5):26"/>
				<v:ud v:nameU="visVersion" v:prompt="" v:val="VT0(15):26"/>
			</v:userDefs>
			<title>Dialog form</title>
			<g id="shape1-2" v:mID="1" v:groupContext="groupContent">
				<g id="shadow1-3" v:groupContext="shadow" v:shadowOffsetX="1.8" v:shadowOffsetY="-1.8" v:shadowType="1"
						transform="matrix(1,0,0,1,1.8,1.8)" class="st1">
					<rect x="0" y="518.74" width="538.583" height="323.15" rx="4.25197" ry="4.25197" class="st2"/>
				</g>
				<rect x="0" y="518.74" width="538.583" height="323.15" rx="4.25197" ry="4.25197" class="st3"/>
			</g>
			<g id="shape2-6" v:mID="2" v:groupContext="shape" transform="translate(6,-6)">
				<title>Sheet.2</title>
			</g>
			<g id="shape3-8" v:mID="3" v:groupContext="shape" transform="translate(6,-6)">
				<title>Sheet.3</title>
				<rect x="0" y="557.544" width="526.583" height="284.346" class="st3"/>
			</g>
			<g id="shape4-10" v:mID="4" v:groupContext="shape" transform="translate(6,-6)">
				<title>Sheet.4</title>
			</g>
			<g id="shape5-12" v:mID="5" v:groupContext="shape" transform="translate(0,-293.666)">
				<title>Sheet.5</title>
				<desc>RealTime-EyeTracking</desc>
				<v:userDefs>
					<v:ud v:nameU="msvStructureType" v:prompt="" v:val="VT4(Heading)"/>
					<v:ud v:nameU="msvSDContainerHeadingEdge" v:prompt="" v:val="VT4(Bottom)"/>
					<v:ud v:nameU="HSide" v:prompt="" v:val="VT0(0):26"/>
				</v:userDefs>
				<v:textBlock v:margins="rect(8,8,8,8)" v:tabSpace="42.5197" v:verticalAlign="0"/>
				<v:textRect cx="269.291" cy="828.488" width="538.59" height="26.8036"/>
				<rect x="0" y="815.086" width="538.583" height="26.8036" rx="4.25197" ry="4.25197" class="st4"/>
				<rect x="0" y="815.086" width="538.583" height="26.8036" rx="4.25197" ry="4.25197" class="st5"/>
				<text x="229.13" y="831.19" class="st6" v:langID="1030"><v:paragraph v:horizAlign="1"/><v:tabList/>RealTime-EyeTracking</text>			</g>
		</g>
		<g id="group88-16" transform="translate(119.354,-558.583)" v:mID="88" v:groupContext="group">
			<v:userDefs>
				<v:ud v:nameU="msvStructureType" v:prompt="" v:val="VT4(Container)"/>
				<v:ud v:nameU="msvShapeCategories" v:prompt="" v:val="VT4(Panel)"/>
				<v:ud v:nameU="visVersion" v:prompt="" v:val="VT0(15):26"/>
			</v:userDefs>
			<title>Panel</title>
			<g id="shape88-17" v:mID="88" v:groupContext="groupContent">
				<rect x="0" y="629.291" width="283.465" height="212.598" class="st7"/>
			</g>
		</g>
		<g id="group93-19" transform="translate(119.354,-524.409)" v:mID="93" v:groupContext="group">
			<v:userDefs>
				<v:ud v:nameU="msvStructureType" v:prompt="" v:val="VT4(Container)"/>
				<v:ud v:nameU="msvShapeCategories" v:prompt="" v:val="VT4(Panel)"/>
				<v:ud v:nameU="visVersion" v:prompt="" v:val="VT0(15):26"/>
			</v:userDefs>
			<title>Panel.93</title>
			<g id="shape93-20" v:mID="93" v:groupContext="groupContent">
				<rect x="0" y="821.89" width="283.465" height="20" class="st7"/>
			</g>
		</g>
		<g id="group96-22" transform="translate(420.945,-559.843)" v:mID="96" v:groupContext="group">
			<v:userDefs>
				<v:ud v:nameU="msvStructureType" v:prompt="" v:val="VT4(Container)"/>
				<v:ud v:nameU="msvShapeCategories" v:prompt="" v:val="VT4(Panel)"/>
				<v:ud v:nameU="visVersion" v:prompt="" v:val="VT0(15):26"/>
			</v:userDefs>
			<title>Panel.96</title>
			<g id="shape96-23" v:mID="96" v:groupContext="groupContent">
				<rect x="0" y="650.551" width="130.394" height="191.339" class="st7"/>
			</g>
		</g>
		<g id="shape97-25" v:mID="97" v:groupContext="shape" transform="translate(420.945,-751.181)">
			<title>Tab bar</title>
			<v:userDefs>
				<v:ud v:nameU="msvStructureType" v:prompt="" v:val="VT4(List)"/>
				<v:ud v:nameU="msvSDListRequiredCategories" v:prompt="" v:val="VT4(Tab)"/>
				<v:ud v:nameU="msvSDListDirection" v:prompt="" v:val="VT0(0):26"/>
				<v:ud v:nameU="Pixel" v:prompt="" v:val="VT0(0.0098425196850394):24"/>
				<v:ud v:nameU="msvSDContainerMargin" v:prompt="" v:val="VT0(0):29"/>
				<v:ud v:nameU="visVersion" v:prompt="" v:val="VT0(15):26"/>
				<v:ud v:nameU="msvSDListItemMaster" v:prompt="" v:val="VT0(254):26"/>
				<v:ud v:nameU="msvSDListSpacing" v:prompt="" v:val="VT0(0.019685039370079):24"/>
				<v:ud v:nameU="msvSDListAlignment" v:prompt="" v:val="VT0(0):26"/>
				<v:ud v:nameU="ActiveTab" v:prompt="" v:val="VT0(1):26"/>
				<v:ud v:nameU="msvSDContainerStyle" v:prompt="" v:val="VT0(2):26"/>
				<v:ud v:nameU="msvSDContainerStyleCount" v:prompt="" v:val="VT0(3):26"/>
				<v:ud v:nameU="HideFrame" v:prompt="" v:val="VT0(0):5"/>
				<v:ud v:nameU="HideFrame" v:prompt="" v:val="VT0(1):5"/>
			</v:userDefs>
		</g>
		<g id="group98-27" transform="translate(508.819,-751.181)" v:mID="98" v:groupContext="group">
			<v:userDefs>
				<v:ud v:nameU="BaseColor" v:prompt="" v:val="VT5(#dddddd)"/>
				<v:ud v:nameU="msvShapeCategories" v:prompt="" v:val="VT4(Tab)"/>
				<v:ud v:nameU="RoundingRadius" v:prompt="" v:val="VT0(0):26"/>
				<v:ud v:nameU="CtrlPtX" v:prompt="" v:val="VT0(0):26"/>
				<v:ud v:nameU="CtrlPtY" v:prompt="" v:val="VT0(0):26"/>
				<v:ud v:nameU="Active" v:prompt="" v:val="VT0(0):5"/>
				<v:ud v:nameU="Pixel" v:prompt="" v:val="VT0(0.0098425196850394):24"/>
				<v:ud v:nameU="TabColorIn" v:prompt="" v:val="VT5(#f2f2f2)"/>
				<v:ud v:nameU="ActiveColor" v:prompt="" v:val="VT5(#ffffff)"/>
				<v:ud v:nameU="TabDecHeight" v:prompt="" v:val="VT0(0):26"/>
				<v:ud v:nameU="visVersion" v:prompt="" v:val="VT0(15):26"/>
				<v:ud v:nameU="BaseColor" v:prompt="" v:val="VT5(#eaeaea)"/>
				<v:ud v:nameU="Active" v:prompt="" v:val="VT0(0):5"/>
				<v:ud v:nameU="TabColorIn" v:prompt="" v:val="VT5(#ffffff)"/>
			</v:userDefs>
			<title>Upper tab item</title>
			<desc>RawData</desc>
			<g id="shape99-28" v:mID="99" v:groupContext="shape">
				<title>Sheet.99</title>
				<path d="M0 841.89 L42.52 841.89 L42.52 827.72 L0 827.72 L0 841.89 Z" class="st8"/>
				<path d="M42.52 841.89 L42.52 827.72 L0 827.72 L0 841.89" class="st9"/>
			</g>
			<g id="shape98-31" v:mID="98" v:groupContext="groupContent">
				<v:textBlock v:margins="rect(4,4,4,4)" v:tabSpace="42.5197"/>
				<v:textRect cx="21.2598" cy="834.803" width="38.98" height="14.1732"/>
				<text x="6.68" y="837.2" class="st10" v:langID="1030"><v:paragraph v:horizAlign="1"/><v:tabList/>RawData</text>			</g>
		</g>
		<g id="group100-33" transform="translate(464.882,-751.181)" v:mID="100" v:groupContext="group">
			<v:userDefs>
				<v:ud v:nameU="BaseColor" v:prompt="" v:val="VT5(#dddddd)"/>
				<v:ud v:nameU="msvShapeCategories" v:prompt="" v:val="VT4(Tab)"/>
				<v:ud v:nameU="RoundingRadius" v:prompt="" v:val="VT0(0):26"/>
				<v:ud v:nameU="CtrlPtX" v:prompt="" v:val="VT0(0):26"/>
				<v:ud v:nameU="CtrlPtY" v:prompt="" v:val="VT0(0):26"/>
				<v:ud v:nameU="Active" v:prompt="" v:val="VT0(0):5"/>
				<v:ud v:nameU="Pixel" v:prompt="" v:val="VT0(0.0098425196850394):24"/>
				<v:ud v:nameU="TabColorIn" v:prompt="" v:val="VT5(#f2f2f2)"/>
				<v:ud v:nameU="ActiveColor" v:prompt="" v:val="VT5(#ffffff)"/>
				<v:ud v:nameU="TabDecHeight" v:prompt="" v:val="VT0(0):26"/>
				<v:ud v:nameU="visVersion" v:prompt="" v:val="VT0(15):26"/>
				<v:ud v:nameU="BaseColor" v:prompt="" v:val="VT5(#eaeaea)"/>
				<v:ud v:nameU="Active" v:prompt="" v:val="VT0(0):5"/>
				<v:ud v:nameU="TabColorIn" v:prompt="" v:val="VT5(#ffffff)"/>
			</v:userDefs>
			<title>Upper tab item.100</title>
			<desc>Camera</desc>
			<g id="shape101-34" v:mID="101" v:groupContext="shape">
				<title>Sheet.101</title>
				<path d="M0 841.89 L42.52 841.89 L42.52 827.72 L0 827.72 L0 841.89 Z" class="st8"/>
				<path d="M42.52 841.89 L42.52 827.72 L0 827.72 L0 841.89" class="st9"/>
			</g>
			<g id="shape100-37" v:mID="100" v:groupContext="groupContent">
				<v:textBlock v:margins="rect(4,4,4,4)" v:tabSpace="42.5197"/>
				<v:textRect cx="21.2598" cy="834.803" width="34.91" height="14.1732"/>
				<text x="8.72" y="837.2" class="st10" v:langID="1030"><v:paragraph v:horizAlign="1"/><v:tabList/>Camera</text>			</g>
		</g>
		<g id="group102-39" transform="translate(420.945,-751.181)" v:mID="102" v:groupContext="group">
			<v:userDefs>
				<v:ud v:nameU="BaseColor" v:prompt="" v:val="VT5(#dddddd)"/>
				<v:ud v:nameU="msvShapeCategories" v:prompt="" v:val="VT4(Tab)"/>
				<v:ud v:nameU="RoundingRadius" v:prompt="" v:val="VT0(0):26"/>
				<v:ud v:nameU="CtrlPtX" v:prompt="" v:val="VT0(0):26"/>
				<v:ud v:nameU="CtrlPtY" v:prompt="" v:val="VT0(0):26"/>
				<v:ud v:nameU="Active" v:prompt="" v:val="VT0(0):5"/>
				<v:ud v:nameU="Pixel" v:prompt="" v:val="VT0(0.0098425196850394):24"/>
				<v:ud v:nameU="TabColorIn" v:prompt="" v:val="VT5(#f2f2f2)"/>
				<v:ud v:nameU="ActiveColor" v:prompt="" v:val="VT5(#ffffff)"/>
				<v:ud v:nameU="TabDecHeight" v:prompt="" v:val="VT0(0):26"/>
				<v:ud v:nameU="visVersion" v:prompt="" v:val="VT0(15):26"/>
				<v:ud v:nameU="BaseColor" v:prompt="" v:val="VT5(#eaeaea)"/>
				<v:ud v:nameU="Active" v:prompt="" v:val="VT0(1):5"/>
				<v:ud v:nameU="TabColorIn" v:prompt="" v:val="VT5(#ffffff)"/>
				<v:ud v:nameU="TabDecHeight" v:prompt="" v:val="VT0(0.0098425196850394):24"/>
			</v:userDefs>
			<title>Upper tab item.102</title>
			<desc>Notes</desc>
			<g id="shape103-40" v:mID="103" v:groupContext="shape">
				<title>Sheet.103</title>
				<path d="M0 842.6 L42.52 842.6 L42.52 827.72 L0 827.72 L0 842.6 Z" class="st11"/>
				<path d="M42.52 841.89 L42.52 827.72 L0 827.72 L0 841.89" class="st9"/>
			</g>
			<g id="shape102-43" v:mID="102" v:groupContext="groupContent">
				<v:textBlock v:margins="rect(4,4,4,4)" v:tabSpace="42.5197"/>
				<v:textRect cx="21.2598" cy="834.803" width="28.99" height="14.1732"/>
				<text x="11.67" y="837.2" class="st10" v:langID="1030"><v:paragraph v:horizAlign="1"/><v:tabList/>Notes</text>			</g>
		</g>
		<g id="group16-45" transform="translate(539.669,-799.795)" v:mID="16" v:groupContext="group">
			<v:custProps>
				<v:cp v:nameU="Type" v:lbl="Type" v:prompt="" v:type="1" v:format="Close;Maximize;Minimize;Restore" v:sortKey=""
						v:invis="false" v:ask="false" v:langID="1033" v:cal="0" v:val="VT4(Close)"/>
			</v:custProps>
			<v:userDefs>
				<v:ud v:nameU="Subtype" v:prompt="" v:val="VT0(0):26"/>
				<v:ud v:nameU="Inactive" v:prompt="" v:val="VT0(1):5"/>
				<v:ud v:nameU="FillColor" v:prompt="" v:val="VT5(#b7b7b7)"/>
				<v:ud v:nameU="IconColor" v:prompt="" v:val="VT5(#8c8c8c)"/>
				<v:ud v:nameU="visVersion" v:prompt="" v:val="VT0(15):26"/>
				<v:ud v:nameU="IconColor" v:prompt="" v:val="VT5(#000000)"/>
			</v:userDefs>
			<title>Dialog button</title>
			<g id="shape17-46" v:mID="17" v:groupContext="shape">
				<title>Sheet.17</title>
				<rect x="0" y="827.717" width="21.2598" height="14.1732" class="st12"/>
			</g>
			<g id="shape18-50" v:mID="18" v:groupContext="shape" transform="translate(8.50394,-4.96063)">
				<title>Sheet.18</title>
				<path d="M0 841.84 L4.25 837.64" class="st13"/>
				<path d="M0.05 837.74 L4.25 841.89" class="st13"/>
			</g>
			<g id="shape19-54" v:mID="19" v:groupContext="shape" transform="translate(6.90945,-5.66929)">
				<title>Sheet.19</title>
			</g>
			<g id="shape20-56" v:mID="20" v:groupContext="shape" transform="translate(6.90945,-3.89764)">
				<title>Sheet.20</title>
			</g>
			<g id="shape21-58" v:mID="21" v:groupContext="shape" transform="translate(6.90945,-3.36614)">
				<title>Sheet.21</title>
			</g>
		</g>
		<g id="group22-60" transform="translate(522.661,-799.795)" v:mID="22" v:groupContext="group">
			<v:custProps>
				<v:cp v:nameU="Type" v:lbl="Type" v:prompt="" v:type="1" v:format="Close;Maximize;Minimize;Restore" v:sortKey=""
						v:invis="false" v:ask="false" v:langID="1033" v:cal="0" v:val="VT4(Close)"/>
				<v:cp v:nameU="Type" v:lbl="" v:prompt="" v:type="0" v:format="" v:sortKey="" v:invis="false" v:ask="false"
						v:langID="1030" v:cal="0" v:val="VT4(Maximize)"/>
			</v:custProps>
			<v:userDefs>
				<v:ud v:nameU="Subtype" v:prompt="" v:val="VT0(0):26"/>
				<v:ud v:nameU="Inactive" v:prompt="" v:val="VT0(1):5"/>
				<v:ud v:nameU="FillColor" v:prompt="" v:val="VT5(#b7b7b7)"/>
				<v:ud v:nameU="IconColor" v:prompt="" v:val="VT5(#8c8c8c)"/>
				<v:ud v:nameU="visVersion" v:prompt="" v:val="VT0(15):26"/>
				<v:ud v:nameU="Subtype" v:prompt="" v:val="VT0(1):26"/>
				<v:ud v:nameU="IconColor" v:prompt="" v:val="VT5(#000000)"/>
			</v:userDefs>
			<title>Dialog button.22</title>
			<g id="shape23-61" v:mID="23" v:groupContext="shape">
				<title>Sheet.23</title>
				<rect x="0" y="827.717" width="17.0079" height="14.1732" class="st12"/>
			</g>
			<g id="shape24-64" v:mID="24" v:groupContext="shape" transform="translate(6.80315,-5.38583)">
				<title>Sheet.24</title>
			</g>
			<g id="shape25-66" v:mID="25" v:groupContext="shape" transform="translate(5.52756,-5.66929)">
				<title>Sheet.25</title>
			</g>
			<g id="shape26-68" v:mID="26" v:groupContext="shape" transform="translate(5.52756,-4.53543)">
				<title>Sheet.26</title>
				<path d="M0 838.03 L5.94 838.03 L5.94 836.79 L0 836.79 L0 838.03 Z" class="st14"/>
				<path d="M0 838.03 L5.94 838.03 L5.94 836.79 L0 836.79 L0 838.03" class="st15"/>
				<path d="M0.01 841.89 L5.95 841.89 L5.95 836.83 L0.01 836.83 L0.01 841.89" class="st15"/>
			</g>
			<g id="shape27-72" v:mID="27" v:groupContext="shape" transform="translate(5.52756,-4.11024)">
				<title>Sheet.27</title>
			</g>
		</g>
		<g id="group28-74" transform="translate(505.654,-799.795)" v:mID="28" v:groupContext="group">
			<v:custProps>
				<v:cp v:nameU="Type" v:lbl="Type" v:prompt="" v:type="1" v:format="Close;Maximize;Minimize;Restore" v:sortKey=""
						v:invis="false" v:ask="false" v:langID="1033" v:cal="0" v:val="VT4(Close)"/>
				<v:cp v:nameU="Type" v:lbl="" v:prompt="" v:type="0" v:format="" v:sortKey="" v:invis="false" v:ask="false"
						v:langID="1030" v:cal="0" v:val="VT4(Minimize)"/>
			</v:custProps>
			<v:userDefs>
				<v:ud v:nameU="Subtype" v:prompt="" v:val="VT0(0):26"/>
				<v:ud v:nameU="Inactive" v:prompt="" v:val="VT0(1):5"/>
				<v:ud v:nameU="FillColor" v:prompt="" v:val="VT5(#b7b7b7)"/>
				<v:ud v:nameU="IconColor" v:prompt="" v:val="VT5(#8c8c8c)"/>
				<v:ud v:nameU="visVersion" v:prompt="" v:val="VT0(15):26"/>
				<v:ud v:nameU="Subtype" v:prompt="" v:val="VT0(2):26"/>
				<v:ud v:nameU="IconColor" v:prompt="" v:val="VT5(#000000)"/>
			</v:userDefs>
			<title>Dialog button.28</title>
			<g id="shape29-75" v:mID="29" v:groupContext="shape">
				<title>Sheet.29</title>
				<rect x="0" y="827.717" width="17.0079" height="14.1732" class="st12"/>
			</g>
			<g id="shape30-78" v:mID="30" v:groupContext="shape" transform="translate(6.80315,-5.38583)">
				<title>Sheet.30</title>
			</g>
			<g id="shape31-80" v:mID="31" v:groupContext="shape" transform="translate(5.52756,-5.66929)">
				<title>Sheet.31</title>
				<path d="M0 841.89 L5.95 841.89" class="st16"/>
			</g>
			<g id="shape32-83" v:mID="32" v:groupContext="shape" transform="translate(5.52756,-4.53543)">
				<title>Sheet.32</title>
			</g>
			<g id="shape33-85" v:mID="33" v:groupContext="shape" transform="translate(5.52756,-4.11024)">
				<title>Sheet.33</title>
			</g>
		</g>
		<g id="shape89-87" v:mID="89" v:groupContext="shape" transform="translate(185.086,-654.882)">
			<title>Sheet.89</title>
			<desc>EyeTracking data</desc>
			<v:textBlock v:margins="rect(4,4,4,4)" v:tabSpace="42.5197"/>
			<v:textRect cx="76" cy="831.89" width="152" height="20"/>
			<rect x="0" y="821.89" width="152" height="20" class="st17"/>
			<text x="34.59" y="835.49" class="st18" v:langID="1030"><v:paragraph v:horizAlign="1"/><v:tabList/>EyeTracking data</text>		</g>
		<g id="shape94-90" v:mID="94" v:groupContext="shape" transform="translate(185.086,-524.409)">
			<title>Sheet.94</title>
			<desc>Tracking running</desc>
			<v:textBlock v:margins="rect(4,4,4,4)" v:tabSpace="42.5197"/>
			<v:textRect cx="76" cy="831.89" width="152" height="20"/>
			<rect x="0" y="821.89" width="152" height="20" class="st17"/>
			<text x="35.23" y="835.49" class="st18" v:langID="1030"><v:paragraph v:horizAlign="1"/><v:tabList/>Tracking running</text>		</g>
		<g id="group148-93" transform="translate(422.362,-510.236)" v:mID="148" v:groupContext="group">
			<v:userDefs>
				<v:ud v:nameU="FillBkgndIn" v:prompt="" v:val="VT5(#ececec)"/>
				<v:ud v:nameU="LineColor" v:prompt="" v:val="VT5(#4c4c4c)"/>
				<v:ud v:nameU="BaseColor" v:prompt="" v:val="VT5(#e5e5e5)"/>
				<v:ud v:nameU="HColor1" v:prompt="" v:val="VT5(#f8f8f8)"/>
				<v:ud v:nameU="HColor2" v:prompt="" v:val="VT5(#ececec)"/>
				<v:ud v:nameU="HColor3" v:prompt="" v:val="VT5(#d3d3d3)"/>
				<v:ud v:nameU="HColor4" v:prompt="" v:val="VT5(#e4e4e4)"/>
				<v:ud v:nameU="AccentColor" v:prompt="" v:val="VT5(#e5e5e5)"/>
				<v:ud v:nameU="State" v:prompt="" v:val="VT0(0):26"/>
				<v:ud v:nameU="TextColor" v:prompt="" v:val="VT5(#000000)"/>
				<v:ud v:nameU="visVersion" v:prompt="" v:val="VT0(15):26"/>
				<v:ud v:nameU="FillBkgndIn" v:prompt="" v:val="VT5(#000000)"/>
				<v:ud v:nameU="BaseColor" v:prompt="" v:val="VT5(#ffffff)"/>
				<v:ud v:nameU="HColor1" v:prompt="" v:val="VT5(#ffffff)"/>
				<v:ud v:nameU="HColor2" v:prompt="" v:val="VT5(#fefefe)"/>
				<v:ud v:nameU="HColor3" v:prompt="" v:val="VT5(#e9e9e9)"/>
				<v:ud v:nameU="HColor4" v:prompt="" v:val="VT5(#efefef)"/>
				<v:ud v:nameU="AccentColor" v:prompt="" v:val="VT5(#ffffff)"/>
			</v:userDefs>
			<title>Button</title>
			<desc>Save preferences</desc>
			<g id="shape149-94" v:mID="149" v:groupContext="shape" transform="translate(0.375,-0.5625)">
				<title>Sheet.149</title>
				<path d="M0 824.55 L0 840.27 A1.62 1.62 -180 0 0 1.62 841.89 L51.49 841.89 A1.62 1.62 -180 0 0 53.11 840.27 L53.11
							 824.55 L0 824.55 Z" class="st19"/>
				<path d="M0 824.55 L0 840.27 A1.62 1.62 -180 0 0 1.62 841.89 L51.49 841.89 A1.62 1.62 -180 0 0 53.11 840.27 L53.11
							 824.55" class="st20"/>
			</g>
			<g id="shape150-99" v:mID="150" v:groupContext="shape" transform="translate(0.375,-17.529)">
				<title>Sheet.150</title>
				<path d="M53.11 841.89 L53.11 826.17 A1.62 1.62 -180 0 0 51.49 824.55 L1.62 824.55 A1.62 1.62 -180 0 0 -0 826.17
							 L0 841.89 L53.11 841.89 Z" class="st21"/>
				<path d="M53.11 841.89 L53.11 826.17 A1.62 1.62 -180 0 0 51.49 824.55 L1.62 824.55 A1.62 1.62 -180 0 0 -0 826.17
							 L0 841.89" class="st20"/>
			</g>
			<g id="shape151-104" v:mID="151" v:groupContext="shape">
				<title>Sheet.151</title>
				<rect x="0" y="806.457" width="53.8583" height="35.4331" rx="1.62" ry="1.62" class="st22"/>
				<rect x="0" y="806.457" width="53.8583" height="35.4331" rx="1.62" ry="1.62" class="st23"/>
			</g>
			<g id="shape148-107" v:mID="148" v:groupContext="groupContent">
				<v:textBlock v:margins="rect(4,4,4,4)" v:tabSpace="42.5197"/>
				<v:textRect cx="26.9291" cy="824.173" width="53.86" height="35.4331"/>
				<text x="19.38" y="821.77" class="st10" v:langID="1030"><v:paragraph v:horizAlign="1"/><v:tabList/>Save <tspan
							x="7.5" dy="1.2em" class="st24">preferences</tspan></text>			</g>
		</g>
		<g id="group152-110" transform="translate(497.48,-510.236)" v:mID="152" v:groupContext="group">
			<v:userDefs>
				<v:ud v:nameU="FillBkgndIn" v:prompt="" v:val="VT5(#ececec)"/>
				<v:ud v:nameU="LineColor" v:prompt="" v:val="VT5(#4c4c4c)"/>
				<v:ud v:nameU="BaseColor" v:prompt="" v:val="VT5(#e5e5e5)"/>
				<v:ud v:nameU="HColor1" v:prompt="" v:val="VT5(#f8f8f8)"/>
				<v:ud v:nameU="HColor2" v:prompt="" v:val="VT5(#ececec)"/>
				<v:ud v:nameU="HColor3" v:prompt="" v:val="VT5(#d3d3d3)"/>
				<v:ud v:nameU="HColor4" v:prompt="" v:val="VT5(#e4e4e4)"/>
				<v:ud v:nameU="AccentColor" v:prompt="" v:val="VT5(#e5e5e5)"/>
				<v:ud v:nameU="State" v:prompt="" v:val="VT0(0):26"/>
				<v:ud v:nameU="TextColor" v:prompt="" v:val="VT5(#000000)"/>
				<v:ud v:nameU="visVersion" v:prompt="" v:val="VT0(15):26"/>
				<v:ud v:nameU="FillBkgndIn" v:prompt="" v:val="VT5(#000000)"/>
				<v:ud v:nameU="BaseColor" v:prompt="" v:val="VT5(#ffffff)"/>
				<v:ud v:nameU="HColor1" v:prompt="" v:val="VT5(#ffffff)"/>
				<v:ud v:nameU="HColor2" v:prompt="" v:val="VT5(#fefefe)"/>
				<v:ud v:nameU="HColor3" v:prompt="" v:val="VT5(#e9e9e9)"/>
				<v:ud v:nameU="HColor4" v:prompt="" v:val="VT5(#efefef)"/>
				<v:ud v:nameU="AccentColor" v:prompt="" v:val="VT5(#ffffff)"/>
			</v:userDefs>
			<title>Button.152</title>
			<desc>Load preferences</desc>
			<g id="shape153-111" v:mID="153" v:groupContext="shape" transform="translate(0.375,-0.5625)">
				<title>Sheet.153</title>
				<path d="M0 824.55 L0 840.27 A1.62 1.62 -180 0 0 1.62 841.89 L51.49 841.89 A1.62 1.62 -180 0 0 53.11 840.27 L53.11
							 824.55 L0 824.55 Z" class="st19"/>
				<path d="M0 824.55 L0 840.27 A1.62 1.62 -180 0 0 1.62 841.89 L51.49 841.89 A1.62 1.62 -180 0 0 53.11 840.27 L53.11
							 824.55" class="st20"/>
			</g>
			<g id="shape154-115" v:mID="154" v:groupContext="shape" transform="translate(0.375,-17.529)">
				<title>Sheet.154</title>
				<path d="M53.11 841.89 L53.11 826.17 A1.62 1.62 -180 0 0 51.49 824.55 L1.62 824.55 A1.62 1.62 -180 0 0 -0 826.17
							 L0 841.89 L53.11 841.89 Z" class="st21"/>
				<path d="M53.11 841.89 L53.11 826.17 A1.62 1.62 -180 0 0 51.49 824.55 L1.62 824.55 A1.62 1.62 -180 0 0 -0 826.17
							 L0 841.89" class="st20"/>
			</g>
			<g id="shape155-119" v:mID="155" v:groupContext="shape">
				<title>Sheet.155</title>
				<rect x="0" y="806.457" width="53.8583" height="35.4331" rx="1.62" ry="1.62" class="st22"/>
				<rect x="0" y="806.457" width="53.8583" height="35.4331" rx="1.62" ry="1.62" class="st23"/>
			</g>
			<g id="shape152-122" v:mID="152" v:groupContext="groupContent">
				<v:textBlock v:margins="rect(4,4,4,4)" v:tabSpace="42.5197"/>
				<v:textRect cx="26.9291" cy="824.173" width="53.86" height="35.4331"/>
				<text x="19.12" y="821.77" class="st10" v:langID="1030"><v:paragraph v:horizAlign="1"/><v:tabList/>Load <tspan
							x="7.5" dy="1.2em" class="st24">preferences</tspan></text>			</g>
		</g>
		<g id="group156-125" transform="translate(42.5197,-748.74)" v:mID="156" v:groupContext="group">
			<v:userDefs>
				<v:ud v:nameU="FillBkgndIn" v:prompt="" v:val="VT5(#ececec)"/>
				<v:ud v:nameU="LineColor" v:prompt="" v:val="VT5(#4c4c4c)"/>
				<v:ud v:nameU="BaseColor" v:prompt="" v:val="VT5(#e5e5e5)"/>
				<v:ud v:nameU="HColor1" v:prompt="" v:val="VT5(#f8f8f8)"/>
				<v:ud v:nameU="HColor2" v:prompt="" v:val="VT5(#ececec)"/>
				<v:ud v:nameU="HColor3" v:prompt="" v:val="VT5(#d3d3d3)"/>
				<v:ud v:nameU="HColor4" v:prompt="" v:val="VT5(#e4e4e4)"/>
				<v:ud v:nameU="AccentColor" v:prompt="" v:val="VT5(#e5e5e5)"/>
				<v:ud v:nameU="State" v:prompt="" v:val="VT0(0):26"/>
				<v:ud v:nameU="TextColor" v:prompt="" v:val="VT5(#000000)"/>
				<v:ud v:nameU="visVersion" v:prompt="" v:val="VT0(15):26"/>
				<v:ud v:nameU="FillBkgndIn" v:prompt="" v:val="VT5(#000000)"/>
				<v:ud v:nameU="BaseColor" v:prompt="" v:val="VT5(#ffffff)"/>
				<v:ud v:nameU="HColor1" v:prompt="" v:val="VT5(#ffffff)"/>
				<v:ud v:nameU="HColor2" v:prompt="" v:val="VT5(#fefefe)"/>
				<v:ud v:nameU="HColor3" v:prompt="" v:val="VT5(#e9e9e9)"/>
				<v:ud v:nameU="HColor4" v:prompt="" v:val="VT5(#efefef)"/>
				<v:ud v:nameU="AccentColor" v:prompt="" v:val="VT5(#ffffff)"/>
			</v:userDefs>
			<title>Button.156</title>
			<desc>Create session</desc>
			<g id="shape157-126" v:mID="157" v:groupContext="shape" transform="translate(0.375,-0.5625)">
				<title>Sheet.157</title>
				<path d="M0 831.04 L0 840.27 A1.62 1.62 -180 0 0 1.62 841.89 L68.5 841.89 A1.62 1.62 -180 0 0 70.12 840.27 L70.12
							 831.04 L0 831.04 Z" class="st19"/>
				<path d="M0 831.04 L0 840.27 A1.62 1.62 -180 0 0 1.62 841.89 L68.5 841.89 A1.62 1.62 -180 0 0 70.12 840.27 L70.12
							 831.04" class="st20"/>
			</g>
			<g id="shape158-130" v:mID="158" v:groupContext="shape" transform="translate(0.375,-11.033)">
				<title>Sheet.158</title>
				<path d="M70.12 841.89 L70.12 832.66 A1.62 1.62 -180 0 0 68.5 831.04 L1.62 831.04 A1.62 1.62 -180 0 0 -0 832.66 L0
							 841.89 L70.12 841.89 Z" class="st21"/>
				<path d="M70.12 841.89 L70.12 832.66 A1.62 1.62 -180 0 0 68.5 831.04 L1.62 831.04 A1.62 1.62 -180 0 0 -0 832.66 L0
							 841.89" class="st20"/>
			</g>
			<g id="shape159-134" v:mID="159" v:groupContext="shape">
				<title>Sheet.159</title>
				<rect x="0" y="819.449" width="70.8661" height="22.4409" rx="1.62" ry="1.62" class="st22"/>
				<rect x="0" y="819.449" width="70.8661" height="22.4409" rx="1.62" ry="1.62" class="st23"/>
			</g>
			<g id="shape156-137" v:mID="156" v:groupContext="groupContent">
				<v:textBlock v:margins="rect(4,4,4,4)" v:tabSpace="42.5197"/>
				<v:textRect cx="35.4331" cy="830.669" width="70.87" height="22.4409"/>
				<text x="11.95" y="833.07" class="st10" v:langID="1030"><v:paragraph v:horizAlign="1"/><v:tabList/>Create session</text>			</g>
		</g>
		<g id="group160-139" transform="translate(42.5197,-722.835)" v:mID="160" v:groupContext="group">
			<v:userDefs>
				<v:ud v:nameU="FillBkgndIn" v:prompt="" v:val="VT5(#ececec)"/>
				<v:ud v:nameU="LineColor" v:prompt="" v:val="VT5(#4c4c4c)"/>
				<v:ud v:nameU="BaseColor" v:prompt="" v:val="VT5(#e5e5e5)"/>
				<v:ud v:nameU="HColor1" v:prompt="" v:val="VT5(#f8f8f8)"/>
				<v:ud v:nameU="HColor2" v:prompt="" v:val="VT5(#ececec)"/>
				<v:ud v:nameU="HColor3" v:prompt="" v:val="VT5(#d3d3d3)"/>
				<v:ud v:nameU="HColor4" v:prompt="" v:val="VT5(#e4e4e4)"/>
				<v:ud v:nameU="AccentColor" v:prompt="" v:val="VT5(#e5e5e5)"/>
				<v:ud v:nameU="State" v:prompt="" v:val="VT0(0):26"/>
				<v:ud v:nameU="TextColor" v:prompt="" v:val="VT5(#000000)"/>
				<v:ud v:nameU="visVersion" v:prompt="" v:val="VT0(15):26"/>
				<v:ud v:nameU="FillBkgndIn" v:prompt="" v:val="VT5(#000000)"/>
				<v:ud v:nameU="BaseColor" v:prompt="" v:val="VT5(#ffffff)"/>
				<v:ud v:nameU="HColor1" v:prompt="" v:val="VT5(#ffffff)"/>
				<v:ud v:nameU="HColor2" v:prompt="" v:val="VT5(#fefefe)"/>
				<v:ud v:nameU="HColor3" v:prompt="" v:val="VT5(#e9e9e9)"/>
				<v:ud v:nameU="HColor4" v:prompt="" v:val="VT5(#efefef)"/>
				<v:ud v:nameU="AccentColor" v:prompt="" v:val="VT5(#ffffff)"/>
			</v:userDefs>
			<title>Button.160</title>
			<desc>Start calibration</desc>
			<g id="shape161-140" v:mID="161" v:groupContext="shape" transform="translate(0.375,-0.5625)">
				<title>Sheet.161</title>
				<path d="M0 831.04 L0 840.27 A1.62 1.62 -180 0 0 1.62 841.89 L68.5 841.89 A1.62 1.62 -180 0 0 70.12 840.27 L70.12
							 831.04 L0 831.04 Z" class="st19"/>
				<path d="M0 831.04 L0 840.27 A1.62 1.62 -180 0 0 1.62 841.89 L68.5 841.89 A1.62 1.62 -180 0 0 70.12 840.27 L70.12
							 831.04" class="st20"/>
			</g>
			<g id="shape162-144" v:mID="162" v:groupContext="shape" transform="translate(0.375,-11.033)">
				<title>Sheet.162</title>
				<path d="M70.12 841.89 L70.12 832.66 A1.62 1.62 -180 0 0 68.5 831.04 L1.62 831.04 A1.62 1.62 -180 0 0 -0 832.66 L0
							 841.89 L70.12 841.89 Z" class="st21"/>
				<path d="M70.12 841.89 L70.12 832.66 A1.62 1.62 -180 0 0 68.5 831.04 L1.62 831.04 A1.62 1.62 -180 0 0 -0 832.66 L0
							 841.89" class="st20"/>
			</g>
			<g id="shape163-148" v:mID="163" v:groupContext="shape">
				<title>Sheet.163</title>
				<rect x="0" y="819.449" width="70.8661" height="22.4409" rx="1.62" ry="1.62" class="st22"/>
				<rect x="0" y="819.449" width="70.8661" height="22.4409" rx="1.62" ry="1.62" class="st23"/>
			</g>
			<g id="shape160-151" v:mID="160" v:groupContext="groupContent">
				<v:textBlock v:margins="rect(4,4,4,4)" v:tabSpace="42.5197"/>
				<v:textRect cx="35.4331" cy="830.669" width="70.87" height="22.4409"/>
				<text x="9.38" y="833.07" class="st10" v:langID="1030"><v:paragraph v:horizAlign="1"/><v:tabList/>Start calibration</text>			</g>
		</g>
		<g id="group164-153" transform="translate(42.5197,-672.047)" v:mID="164" v:groupContext="group">
			<v:userDefs>
				<v:ud v:nameU="FillBkgndIn" v:prompt="" v:val="VT5(#ececec)"/>
				<v:ud v:nameU="LineColor" v:prompt="" v:val="VT5(#4c4c4c)"/>
				<v:ud v:nameU="BaseColor" v:prompt="" v:val="VT5(#e5e5e5)"/>
				<v:ud v:nameU="HColor1" v:prompt="" v:val="VT5(#f8f8f8)"/>
				<v:ud v:nameU="HColor2" v:prompt="" v:val="VT5(#ececec)"/>
				<v:ud v:nameU="HColor3" v:prompt="" v:val="VT5(#d3d3d3)"/>
				<v:ud v:nameU="HColor4" v:prompt="" v:val="VT5(#e4e4e4)"/>
				<v:ud v:nameU="AccentColor" v:prompt="" v:val="VT5(#e5e5e5)"/>
				<v:ud v:nameU="State" v:prompt="" v:val="VT0(0):26"/>
				<v:ud v:nameU="TextColor" v:prompt="" v:val="VT5(#000000)"/>
				<v:ud v:nameU="visVersion" v:prompt="" v:val="VT0(15):26"/>
				<v:ud v:nameU="FillBkgndIn" v:prompt="" v:val="VT5(#000000)"/>
				<v:ud v:nameU="BaseColor" v:prompt="" v:val="VT5(#ffffff)"/>
				<v:ud v:nameU="HColor1" v:prompt="" v:val="VT5(#ffffff)"/>
				<v:ud v:nameU="HColor2" v:prompt="" v:val="VT5(#fefefe)"/>
				<v:ud v:nameU="HColor3" v:prompt="" v:val="VT5(#e9e9e9)"/>
				<v:ud v:nameU="HColor4" v:prompt="" v:val="VT5(#efefef)"/>
				<v:ud v:nameU="AccentColor" v:prompt="" v:val="VT5(#ffffff)"/>
			</v:userDefs>
			<title>Button.164</title>
			<desc>Start eyetracking</desc>
			<g id="shape165-154" v:mID="165" v:groupContext="shape" transform="translate(0.375,-0.5625)">
				<title>Sheet.165</title>
				<path d="M0 831.04 L0 840.27 A1.62 1.62 -180 0 0 1.62 841.89 L68.5 841.89 A1.62 1.62 -180 0 0 70.12 840.27 L70.12
							 831.04 L0 831.04 Z" class="st19"/>
				<path d="M0 831.04 L0 840.27 A1.62 1.62 -180 0 0 1.62 841.89 L68.5 841.89 A1.62 1.62 -180 0 0 70.12 840.27 L70.12
							 831.04" class="st20"/>
			</g>
			<g id="shape166-158" v:mID="166" v:groupContext="shape" transform="translate(0.375,-11.033)">
				<title>Sheet.166</title>
				<path d="M70.12 841.89 L70.12 832.66 A1.62 1.62 -180 0 0 68.5 831.04 L1.62 831.04 A1.62 1.62 -180 0 0 -0 832.66 L0
							 841.89 L70.12 841.89 Z" class="st21"/>
				<path d="M70.12 841.89 L70.12 832.66 A1.62 1.62 -180 0 0 68.5 831.04 L1.62 831.04 A1.62 1.62 -180 0 0 -0 832.66 L0
							 841.89" class="st20"/>
			</g>
			<g id="shape167-162" v:mID="167" v:groupContext="shape">
				<title>Sheet.167</title>
				<rect x="0" y="819.449" width="70.8661" height="22.4409" rx="1.62" ry="1.62" class="st22"/>
				<rect x="0" y="819.449" width="70.8661" height="22.4409" rx="1.62" ry="1.62" class="st23"/>
			</g>
			<g id="shape164-165" v:mID="164" v:groupContext="groupContent">
				<v:textBlock v:margins="rect(4,4,4,4)" v:tabSpace="42.5197"/>
				<v:textRect cx="35.4331" cy="830.669" width="70.87" height="22.4409"/>
				<text x="7.85" y="833.07" class="st10" v:langID="1030"><v:paragraph v:horizAlign="1"/><v:tabList/>Start eyetracking</text>			</g>
		</g>
		<g id="group168-167" transform="translate(42.5197,-644.291)" v:mID="168" v:groupContext="group">
			<v:userDefs>
				<v:ud v:nameU="FillBkgndIn" v:prompt="" v:val="VT5(#ececec)"/>
				<v:ud v:nameU="LineColor" v:prompt="" v:val="VT5(#4c4c4c)"/>
				<v:ud v:nameU="BaseColor" v:prompt="" v:val="VT5(#e5e5e5)"/>
				<v:ud v:nameU="HColor1" v:prompt="" v:val="VT5(#f8f8f8)"/>
				<v:ud v:nameU="HColor2" v:prompt="" v:val="VT5(#ececec)"/>
				<v:ud v:nameU="HColor3" v:prompt="" v:val="VT5(#d3d3d3)"/>
				<v:ud v:nameU="HColor4" v:prompt="" v:val="VT5(#e4e4e4)"/>
				<v:ud v:nameU="AccentColor" v:prompt="" v:val="VT5(#e5e5e5)"/>
				<v:ud v:nameU="State" v:prompt="" v:val="VT0(0):26"/>
				<v:ud v:nameU="TextColor" v:prompt="" v:val="VT5(#000000)"/>
				<v:ud v:nameU="visVersion" v:prompt="" v:val="VT0(15):26"/>
				<v:ud v:nameU="FillBkgndIn" v:prompt="" v:val="VT5(#000000)"/>
				<v:ud v:nameU="BaseColor" v:prompt="" v:val="VT5(#ffffff)"/>
				<v:ud v:nameU="HColor1" v:prompt="" v:val="VT5(#ffffff)"/>
				<v:ud v:nameU="HColor2" v:prompt="" v:val="VT5(#fefefe)"/>
				<v:ud v:nameU="HColor3" v:prompt="" v:val="VT5(#e9e9e9)"/>
				<v:ud v:nameU="HColor4" v:prompt="" v:val="VT5(#efefef)"/>
				<v:ud v:nameU="AccentColor" v:prompt="" v:val="VT5(#ffffff)"/>
			</v:userDefs>
			<title>Button.168</title>
			<desc>Stop eyetracking</desc>
			<g id="shape169-168" v:mID="169" v:groupContext="shape" transform="translate(0.375,-0.5625)">
				<title>Sheet.169</title>
				<path d="M0 831.04 L0 840.27 A1.62 1.62 -180 0 0 1.62 841.89 L68.5 841.89 A1.62 1.62 -180 0 0 70.12 840.27 L70.12
							 831.04 L0 831.04 Z" class="st19"/>
				<path d="M0 831.04 L0 840.27 A1.62 1.62 -180 0 0 1.62 841.89 L68.5 841.89 A1.62 1.62 -180 0 0 70.12 840.27 L70.12
							 831.04" class="st20"/>
			</g>
			<g id="shape170-172" v:mID="170" v:groupContext="shape" transform="translate(0.375,-11.033)">
				<title>Sheet.170</title>
				<path d="M70.12 841.89 L70.12 832.66 A1.62 1.62 -180 0 0 68.5 831.04 L1.62 831.04 A1.62 1.62 -180 0 0 -0 832.66 L0
							 841.89 L70.12 841.89 Z" class="st21"/>
				<path d="M70.12 841.89 L70.12 832.66 A1.62 1.62 -180 0 0 68.5 831.04 L1.62 831.04 A1.62 1.62 -180 0 0 -0 832.66 L0
							 841.89" class="st20"/>
			</g>
			<g id="shape171-176" v:mID="171" v:groupContext="shape">
				<title>Sheet.171</title>
				<rect x="0" y="819.449" width="70.8661" height="22.4409" rx="1.62" ry="1.62" class="st22"/>
				<rect x="0" y="819.449" width="70.8661" height="22.4409" rx="1.62" ry="1.62" class="st23"/>
			</g>
			<g id="shape168-179" v:mID="168" v:groupContext="groupContent">
				<v:textBlock v:margins="rect(4,4,4,4)" v:tabSpace="42.5197"/>
				<v:textRect cx="35.4331" cy="830.669" width="70.87" height="22.4409"/>
				<text x="8.29" y="833.07" class="st10" v:langID="1030"><v:paragraph v:horizAlign="1"/><v:tabList/>Stop eyetracking</text>			</g>
		</g>
		<g id="group372-181" transform="translate(42.5197,-524.409)" v:mID="372" v:groupContext="group">
			<v:userDefs>
				<v:ud v:nameU="FillBkgndIn" v:prompt="" v:val="VT5(#ececec)"/>
				<v:ud v:nameU="LineColor" v:prompt="" v:val="VT5(#4c4c4c)"/>
				<v:ud v:nameU="BaseColor" v:prompt="" v:val="VT5(#e5e5e5)"/>
				<v:ud v:nameU="HColor1" v:prompt="" v:val="VT5(#f8f8f8)"/>
				<v:ud v:nameU="HColor2" v:prompt="" v:val="VT5(#ececec)"/>
				<v:ud v:nameU="HColor3" v:prompt="" v:val="VT5(#d3d3d3)"/>
				<v:ud v:nameU="HColor4" v:prompt="" v:val="VT5(#e4e4e4)"/>
				<v:ud v:nameU="AccentColor" v:prompt="" v:val="VT5(#e5e5e5)"/>
				<v:ud v:nameU="State" v:prompt="" v:val="VT0(0):26"/>
				<v:ud v:nameU="TextColor" v:prompt="" v:val="VT5(#000000)"/>
				<v:ud v:nameU="visVersion" v:prompt="" v:val="VT0(15):26"/>
				<v:ud v:nameU="FillBkgndIn" v:prompt="" v:val="VT5(#000000)"/>
				<v:ud v:nameU="BaseColor" v:prompt="" v:val="VT5(#ffffff)"/>
				<v:ud v:nameU="HColor1" v:prompt="" v:val="VT5(#ffffff)"/>
				<v:ud v:nameU="HColor2" v:prompt="" v:val="VT5(#fefefe)"/>
				<v:ud v:nameU="HColor3" v:prompt="" v:val="VT5(#e9e9e9)"/>
				<v:ud v:nameU="HColor4" v:prompt="" v:val="VT5(#efefef)"/>
				<v:ud v:nameU="AccentColor" v:prompt="" v:val="VT5(#ffffff)"/>
			</v:userDefs>
			<title>Button.372</title>
			<desc>Load raw data</desc>
			<g id="shape373-182" v:mID="373" v:groupContext="shape" transform="translate(0.375,-0.5625)">
				<title>Sheet.373</title>
				<path d="M0 831.04 L0 840.27 A1.62 1.62 -180 0 0 1.62 841.89 L68.5 841.89 A1.62 1.62 -180 0 0 70.12 840.27 L70.12
							 831.04 L0 831.04 Z" class="st19"/>
				<path d="M0 831.04 L0 840.27 A1.62 1.62 -180 0 0 1.62 841.89 L68.5 841.89 A1.62 1.62 -180 0 0 70.12 840.27 L70.12
							 831.04" class="st20"/>
			</g>
			<g id="shape374-186" v:mID="374" v:groupContext="shape" transform="translate(0.375,-11.033)">
				<title>Sheet.374</title>
				<path d="M70.12 841.89 L70.12 832.66 A1.62 1.62 -180 0 0 68.5 831.04 L1.62 831.04 A1.62 1.62 -180 0 0 -0 832.66 L0
							 841.89 L70.12 841.89 Z" class="st21"/>
				<path d="M70.12 841.89 L70.12 832.66 A1.62 1.62 -180 0 0 68.5 831.04 L1.62 831.04 A1.62 1.62 -180 0 0 -0 832.66 L0
							 841.89" class="st20"/>
			</g>
			<g id="shape375-190" v:mID="375" v:groupContext="shape">
				<title>Sheet.375</title>
				<rect x="0" y="819.449" width="70.8661" height="22.4409" rx="1.62" ry="1.62" class="st22"/>
				<rect x="0" y="819.449" width="70.8661" height="22.4409" rx="1.62" ry="1.62" class="st23"/>
			</g>
			<g id="shape372-193" v:mID="372" v:groupContext="groupContent">
				<v:textBlock v:margins="rect(4,4,4,4)" v:tabSpace="42.5197"/>
				<v:textRect cx="35.4331" cy="830.669" width="70.87" height="22.4409"/>
				<text x="12.37" y="833.07" class="st10" v:langID="1030"><v:paragraph v:horizAlign="1"/><v:tabList/>Load raw data</text>			</g>
		</g>
	</g>
</svg>
